<?xml version="1.0" encoding="utf-8"?>
<!-- Generator: Adobe Illustrator 18.1.0, SVG Export Plug-In . SVG Version: 6.00 Build 0)  -->
<svg version="1.1" id="Layer_1" xmlns="http://www.w3.org/2000/svg" xmlns:xlink="http://www.w3.org/1999/xlink" x="0px" y="0px"
	 width="64px" height="64px" viewBox="0 0 64 64" enable-background="new 0 0 64 64" xml:space="preserve">
<g>
	<path fill="#4D4D4D" d="M46.3,22.1L31,61.2c-0.4,1,0.1,2.2,1.1,2.6h0c1,0.4,2.2-0.1,2.6-1.1l15.3-39.1L46.3,22.1z"/>
	<g>
		<circle fill="#90CAF0" cx="52" cy="12" r="12"/>
		<path fill="#81BDE3" d="M58.8,2.2C60.2,4.1,61,6.5,61,9c0,6.6-5.4,12-12,12c-2.5,0-4.9-0.8-6.8-2.2C44.3,22,47.9,24,52,24
			c6.6,0,12-5.4,12-12C64,7.9,62,4.3,58.8,2.2z"/>
		<circle opacity="0.25" fill="#FFFFFF" cx="48.1" cy="8.1" r="3.7"/>
	</g>
</g>
</svg>
