<?xml version="1.0" encoding="utf-8"?>
<!-- Generator: Adobe Illustrator 18.1.0, SVG Export Plug-In . SVG Version: 6.00 Build 0)  -->
<svg version="1.1" id="Layer_1" xmlns="http://www.w3.org/2000/svg" xmlns:xlink="http://www.w3.org/1999/xlink" x="0px" y="0px"
	 width="64px" height="64px" viewBox="0 0 64 64" enable-background="new 0 0 64 64" xml:space="preserve">
<g>
	<path fill="#4D4D4D" d="M32.3,64L32.3,64c0,0,0.1-6.2-0.2-7.3L16.8,8.3c-0.3-1.1-1.5-1.6-2.5-1.3l0,0c-1.1,0.3-1.6,1.5-1.3,2.5
		l15.3,48.4C28.6,59,32.3,64,32.3,64z"/>
	<g>
		<path fill="#E0E0E0" d="M23.9,11.5l4.8,15.1c6.4,0.7,12,4.6,13.9,10.6l-17.2,5.4L24,42L12.9,5l0.5-0.5l13.3-4.2
			C27.9,4.2,26.7,8.3,23.9,11.5z"/>
		<path fill="#E8E8E8" d="M8.3,48.1c-1.9-6,0.4-12.4,5.2-16.7L8.7,16.3c-4.1-1-7.5-3.7-8.7-7.6l13.3-4.2l12.1,38.1L8.3,48.1z"/>
	</g>
</g>
</svg>
